<mxfile host="app.diagrams.net" modified="2021-12-19T13:03:36.877Z" agent="5.0 (Windows NT 10.0; Win64; x64) AppleWebKit/537.36 (KHTML, like Gecko) Chrome/96.0.4664.55 Safari/537.36 Edg/96.0.1054.43" etag="TQQiDINlh9ARltiab1BQ" version="15.9.3" type="github">
  <diagram name="Page-1" id="e7e014a7-5840-1c2e-5031-d8a46d1fe8dd">
    <mxGraphModel dx="1603" dy="734" grid="0" gridSize="10" guides="1" tooltips="1" connect="1" arrows="1" fold="1" page="0" pageScale="1" pageWidth="1169" pageHeight="826" background="none" math="0" shadow="0">
      <root>
        <mxCell id="0" />
        <mxCell id="1" parent="0" />
        <mxCell id="2" value="用户" style="swimlane;whiteSpace=wrap" parent="1" vertex="1">
          <mxGeometry x="164.5" y="129" width="280" height="570" as="geometry" />
        </mxCell>
        <mxCell id="12" value="" style="edgeStyle=elbowEdgeStyle;elbow=horizontal;strokeColor=#FF0000;endArrow=open;endFill=1;rounded=0" parent="2" source="10" edge="1">
          <mxGeometry width="100" height="100" relative="1" as="geometry">
            <mxPoint x="160" y="290" as="sourcePoint" />
            <mxPoint x="60" y="135" as="targetPoint" />
            <Array as="points">
              <mxPoint x="30" y="250" />
            </Array>
          </mxGeometry>
        </mxCell>
        <mxCell id="M-ICi1oFd_hkQYE57OOB-43" value="购物车管理" style="html=1;align=center;verticalAlign=top;rounded=1;absoluteArcSize=1;arcSize=140;dashed=0;" vertex="1" parent="2">
          <mxGeometry x="49.5" y="133" width="140" height="40" as="geometry" />
        </mxCell>
        <mxCell id="5" value="" style="ellipse;shape=startState;fillColor=#000000;strokeColor=#ff0000;" parent="2" vertex="1">
          <mxGeometry x="112.5" y="43" width="30" height="30" as="geometry" />
        </mxCell>
        <mxCell id="M-ICi1oFd_hkQYE57OOB-51" value="结算" style="html=1;align=center;verticalAlign=top;rounded=1;absoluteArcSize=1;arcSize=140;dashed=0;" vertex="1" parent="2">
          <mxGeometry x="70" y="465" width="109" height="40" as="geometry" />
        </mxCell>
        <mxCell id="M-ICi1oFd_hkQYE57OOB-60" value="保留" style="rhombus;" vertex="1" parent="2">
          <mxGeometry x="83.25" y="230" width="82.5" height="30" as="geometry" />
        </mxCell>
        <mxCell id="3" value="商城" style="swimlane;whiteSpace=wrap;startSize=23;" parent="1" vertex="1">
          <mxGeometry x="444.5" y="128" width="280" height="570" as="geometry" />
        </mxCell>
        <mxCell id="M-ICi1oFd_hkQYE57OOB-45" value="显示购物车界面" style="html=1;align=center;verticalAlign=top;rounded=1;absoluteArcSize=1;arcSize=140;dashed=0;" vertex="1" parent="3">
          <mxGeometry x="75.5" y="137" width="140" height="40" as="geometry" />
        </mxCell>
        <mxCell id="M-ICi1oFd_hkQYE57OOB-49" value="从购物车移除" style="html=1;align=center;verticalAlign=top;rounded=1;absoluteArcSize=1;arcSize=140;dashed=0;" vertex="1" parent="3">
          <mxGeometry x="72.5" y="346" width="86.5" height="40" as="geometry" />
        </mxCell>
        <mxCell id="M-ICi1oFd_hkQYE57OOB-57" style="edgeStyle=orthogonalEdgeStyle;rounded=0;orthogonalLoop=1;jettySize=auto;html=1;exitX=0.5;exitY=1;exitDx=0;exitDy=0;" edge="1" parent="1" source="5">
          <mxGeometry relative="1" as="geometry">
            <mxPoint x="292.57142857142867" y="260.7142857142858" as="targetPoint" />
          </mxGeometry>
        </mxCell>
        <mxCell id="M-ICi1oFd_hkQYE57OOB-61" style="edgeStyle=orthogonalEdgeStyle;rounded=0;orthogonalLoop=1;jettySize=auto;html=1;exitX=0.5;exitY=1;exitDx=0;exitDy=0;" edge="1" parent="1" source="M-ICi1oFd_hkQYE57OOB-43">
          <mxGeometry relative="1" as="geometry">
            <mxPoint x="284.0000000000001" y="355.7142857142858" as="targetPoint" />
          </mxGeometry>
        </mxCell>
        <mxCell id="M-ICi1oFd_hkQYE57OOB-62" style="edgeStyle=orthogonalEdgeStyle;rounded=0;orthogonalLoop=1;jettySize=auto;html=1;exitX=0.5;exitY=1;exitDx=0;exitDy=0;" edge="1" parent="1" source="M-ICi1oFd_hkQYE57OOB-60">
          <mxGeometry relative="1" as="geometry">
            <mxPoint x="527.5714285714287" y="463.57142857142867" as="targetPoint" />
          </mxGeometry>
        </mxCell>
        <mxCell id="M-ICi1oFd_hkQYE57OOB-64" value="否" style="edgeLabel;html=1;align=center;verticalAlign=middle;resizable=0;points=[];" vertex="1" connectable="0" parent="M-ICi1oFd_hkQYE57OOB-62">
          <mxGeometry x="-0.2327" y="1" relative="1" as="geometry">
            <mxPoint as="offset" />
          </mxGeometry>
        </mxCell>
        <mxCell id="M-ICi1oFd_hkQYE57OOB-63" style="edgeStyle=orthogonalEdgeStyle;rounded=0;orthogonalLoop=1;jettySize=auto;html=1;" edge="1" parent="1" source="M-ICi1oFd_hkQYE57OOB-45">
          <mxGeometry relative="1" as="geometry">
            <mxPoint x="361.1428571428571" y="285.0000000000001" as="targetPoint" />
          </mxGeometry>
        </mxCell>
        <mxCell id="M-ICi1oFd_hkQYE57OOB-65" style="edgeStyle=orthogonalEdgeStyle;rounded=0;orthogonalLoop=1;jettySize=auto;html=1;exitX=0.5;exitY=1;exitDx=0;exitDy=0;entryX=1;entryY=0.5;entryDx=0;entryDy=0;" edge="1" parent="1" source="M-ICi1oFd_hkQYE57OOB-49" target="M-ICi1oFd_hkQYE57OOB-51">
          <mxGeometry relative="1" as="geometry" />
        </mxCell>
        <mxCell id="M-ICi1oFd_hkQYE57OOB-66" style="edgeStyle=orthogonalEdgeStyle;rounded=0;orthogonalLoop=1;jettySize=auto;html=1;exitX=0;exitY=1;exitDx=0;exitDy=0;" edge="1" parent="1" source="M-ICi1oFd_hkQYE57OOB-60">
          <mxGeometry relative="1" as="geometry">
            <mxPoint x="268.28571428571433" y="590" as="targetPoint" />
          </mxGeometry>
        </mxCell>
        <mxCell id="M-ICi1oFd_hkQYE57OOB-67" value="是" style="edgeLabel;html=1;align=center;verticalAlign=middle;resizable=0;points=[];" vertex="1" connectable="0" parent="M-ICi1oFd_hkQYE57OOB-66">
          <mxGeometry x="-0.1448" y="-1" relative="1" as="geometry">
            <mxPoint y="4" as="offset" />
          </mxGeometry>
        </mxCell>
      </root>
    </mxGraphModel>
  </diagram>
</mxfile>
